<svg width="13" height="14" viewBox="0 0 13 14" fill="none" xmlns="http://www.w3.org/2000/svg">
<path d="M9.625 7.625H7.125V10.125H5.875V7.625H3.375V6.375H5.875V3.875H7.125V6.375H9.625M6.5 0.75C5.67924 0.75 4.86651 0.911661 4.10823 1.22575C3.34994 1.53984 2.66095 2.00022 2.08058 2.58058C0.90848 3.75268 0.25 5.3424 0.25 7C0.25 8.6576 0.90848 10.2473 2.08058 11.4194C2.66095 11.9998 3.34994 12.4602 4.10823 12.7742C4.86651 13.0883 5.67924 13.25 6.5 13.25C8.1576 13.25 9.74731 12.5915 10.9194 11.4194C12.0915 10.2473 12.75 8.6576 12.75 7C12.75 6.17924 12.5883 5.36651 12.2742 4.60823C11.9602 3.84994 11.4998 3.16095 10.9194 2.58058C10.3391 2.00022 9.65006 1.53984 8.89177 1.22575C8.13349 0.911661 7.32076 0.75 6.5 0.75Z" fill="#18181A"/>
</svg>
