<svg width="13" height="14" viewBox="0 0 13 14" fill="none" xmlns="http://www.w3.org/2000/svg">
<path d="M1.54167 0.625H11.4583C11.8341 0.625 12.1944 0.774255 12.4601 1.03993C12.7257 1.30561 12.875 1.66594 12.875 2.04167V11.9583C12.875 12.3341 12.7257 12.6944 12.4601 12.9601C12.1944 13.2257 11.8341 13.375 11.4583 13.375H1.54167C1.16594 13.375 0.805609 13.2257 0.539932 12.9601C0.274255 12.6944 0.125 12.3341 0.125 11.9583V2.04167C0.125 1.66594 0.274255 1.30561 0.539932 1.03993C0.805609 0.774255 1.16594 0.625 1.54167 0.625ZM2.95833 2.04167C2.58261 2.04167 2.22228 2.19092 1.9566 2.4566C1.69092 2.72228 1.54167 3.08261 1.54167 3.45833C1.54167 3.83406 1.69092 4.19439 1.9566 4.46007C2.22228 4.72574 2.58261 4.875 2.95833 4.875C3.33406 4.875 3.69439 4.72574 3.96007 4.46007C4.22574 4.19439 4.375 3.83406 4.375 3.45833C4.375 3.08261 4.22574 2.72228 3.96007 2.4566C3.69439 2.19092 3.33406 2.04167 2.95833 2.04167ZM10.0417 9.125C9.66594 9.125 9.30561 9.27426 9.03993 9.53993C8.77426 9.80561 8.625 10.1659 8.625 10.5417C8.625 10.9174 8.77426 11.2777 9.03993 11.5434C9.30561 11.8091 9.66594 11.9583 10.0417 11.9583C10.4174 11.9583 10.7777 11.8091 11.0434 11.5434C11.3091 11.2777 11.4583 10.9174 11.4583 10.5417C11.4583 10.1659 11.3091 9.80561 11.0434 9.53993C10.7777 9.27426 10.4174 9.125 10.0417 9.125ZM10.0417 2.04167C9.66594 2.04167 9.30561 2.19092 9.03993 2.4566C8.77426 2.72228 8.625 3.08261 8.625 3.45833C8.625 3.83406 8.77426 4.19439 9.03993 4.46007C9.30561 4.72574 9.66594 4.875 10.0417 4.875C10.4174 4.875 10.7777 4.72574 11.0434 4.46007C11.3091 4.19439 11.4583 3.83406 11.4583 3.45833C11.4583 3.08261 11.3091 2.72228 11.0434 2.4566C10.7777 2.19092 10.4174 2.04167 10.0417 2.04167ZM6.5 5.58333C6.12428 5.58333 5.76394 5.73259 5.49827 5.99827C5.23259 6.26394 5.08333 6.62428 5.08333 7C5.08333 7.37572 5.23259 7.73606 5.49827 8.00173C5.76394 8.26741 6.12428 8.41667 6.5 8.41667C6.87572 8.41667 7.23606 8.26741 7.50173 8.00173C7.76741 7.73606 7.91667 7.37572 7.91667 7C7.91667 6.62428 7.76741 6.26394 7.50173 5.99827C7.23606 5.73259 6.87572 5.58333 6.5 5.58333ZM2.95833 9.125C2.58261 9.125 2.22228 9.27426 1.9566 9.53993C1.69092 9.80561 1.54167 10.1659 1.54167 10.5417C1.54167 10.9174 1.69092 11.2777 1.9566 11.5434C2.22228 11.8091 2.58261 11.9583 2.95833 11.9583C3.33406 11.9583 3.69439 11.8091 3.96007 11.5434C4.22574 11.2777 4.375 10.9174 4.375 10.5417C4.375 10.1659 4.22574 9.80561 3.96007 9.53993C3.69439 9.27426 3.33406 9.125 2.95833 9.125Z" fill="#AEC6FF"/>
</svg>
