<svg width="12" height="13" viewBox="0 0 12 13" fill="none" xmlns="http://www.w3.org/2000/svg">
<path d="M8 4.625H1.33333V2.125H8M6 10.875C5.46957 10.875 4.96086 10.6775 4.58579 10.3258C4.21071 9.97419 4 9.49728 4 9C4 8.50272 4.21071 8.02581 4.58579 7.67417C4.96086 7.32254 5.46957 7.125 6 7.125C6.53043 7.125 7.03914 7.32254 7.41421 7.67417C7.78929 8.02581 8 8.50272 8 9C8 9.49728 7.78929 9.97419 7.41421 10.3258C7.03914 10.6775 6.53043 10.875 6 10.875ZM9.33333 0.875H1.33333C0.593333 0.875 0 1.4375 0 2.125V10.875C0 11.2065 0.140476 11.5245 0.390524 11.7589C0.640573 11.9933 0.979711 12.125 1.33333 12.125H10.6667C11.0203 12.125 11.3594 11.9933 11.6095 11.7589C11.8595 11.5245 12 11.2065 12 10.875V3.375L9.33333 0.875Z" fill="#18181A"/>
</svg>
