<svg width="15" height="15" viewBox="0 0 15 15" fill="none" xmlns="http://www.w3.org/2000/svg">
<path d="M13.3812 7.2375L7.75625 1.6125C7.525 1.38125 7.20625 1.25 6.875 1.25H2.5C2.16848 1.25 1.85054 1.3817 1.61612 1.61612C1.3817 1.85054 1.25 2.16848 1.25 2.5V6.875C1.25 7.20625 1.38125 7.525 1.61875 7.75625L1.875 8.00625C2.4375 7.66875 3.0875 7.5 3.75 7.5C4.74456 7.5 5.69839 7.89509 6.40165 8.59835C7.10491 9.30161 7.5 10.2554 7.5 11.25C7.5 11.9125 7.325 12.5562 6.9875 13.125L7.2375 13.375C7.46875 13.6125 7.79375 13.75 8.125 13.75C8.45625 13.75 8.775 13.6187 9.00625 13.3812L13.3812 9.00625C13.6187 8.775 13.75 8.45625 13.75 8.125C13.75 7.79375 13.6187 7.475 13.3812 7.2375ZM3.4375 4.375C3.18886 4.375 2.9504 4.27623 2.77459 4.10041C2.59877 3.9246 2.5 3.68614 2.5 3.4375C2.5 3.18886 2.59877 2.9504 2.77459 2.77459C2.9504 2.59877 3.18886 2.5 3.4375 2.5C3.68614 2.5 3.9246 2.59877 4.10041 2.77459C4.27623 2.9504 4.375 3.18886 4.375 3.4375C4.375 3.68614 4.27623 3.9246 4.10041 4.10041C3.9246 4.27623 3.68614 4.375 3.4375 4.375ZM6.25 11.875H4.375V13.75H3.125V11.875H1.25V10.625H3.125V8.75H4.375V10.625H6.25V11.875Z" fill="#AAAAAA"/>
</svg>
